<?xml version="1.0" encoding="UTF-8"?>
<svg id="Layer_2" data-name="Layer 2" xmlns="http://www.w3.org/2000/svg" viewBox="0 0 639.57 611.29" fill="currentColor">
  <g id="Layer_1-2" data-name="Layer 1">
    <path d="M559.66,522.64c-2.84-1.09-4.82,1.19-7.67-.16-1.05-.5-11.06-9.23-11.06-9.98l5.48-4.77c5.56,5.04,18.46,12.37,12.15,20.91-8.79,11.88-19.26-.08-25.09-7.79l4.82-4.96c3.51,3.15,10.94,12.02,15.75,12.03,2.51,0,6.01-2.42,5.62-5.29Z"/>
    <path d="M619.4,393.15c17.36-.66,16.41,27.2-2.03,23.4-13.77-2.84-11.68-22.88,2.03-23.4ZM620.23,400.58c-14.78,2.02-14.6,12.51,1.71,8.46,11.67-2.9,12.55-10.41-1.71-8.46Z"/>
    <path d="M616.66,385.39c1.95.22,3.6,1.48,5.61,1.5,3.26.04,17.09-4.11,16.08-8.55-1.11-4.86-22.92-.41-21.69,7.05-1.71-3.9-1.87-5.15.08-9.29,4.39-9.31,18.88-8.16,22.06,1.02,4.93,14.23-15.36,23.73-22.14,8.28Z"/>
    <path d="M534.17,540.64c3.82-7.71-8.7-12.17-12.03-5.63l1.24,1.83c7.62-3,11.05,5.45,15.7,9.81.97,1.84-3.51,4.45-4.54,5.98-5.4-6.69-19.52-14.64-10.15-23.64,10.71-10.28,20.86,2.62,9.78,11.65Z"/>
    <path d="M512.61,562.59c-.49.31-.71,1.75-1.71,2.4-2.76,1.83-9.1,4.6-10.38-.15-1.21-4.48,4.65-5.89,6.63-8.11,2.13-2.39-3.38-6.74-4.49-5.59,2.75,7.77-4.11,12.42-6.75,3.75,5.63,1.9,4.59-6.07,11.62-6.07,7.6,0,4.83,7.86,10.87,8.31-2.1-10.33-15.61-12.81-22.12-4.5-1-.8,1.07-3.15,1.58-3.67,7.95-7.98,22.25-1.31,21.29,8.48-.49,4.93-4.58,3.9-6.54,5.14ZM508.65,557.14c-5.62,1.15-2.2,7.77,1.88,6.74,2.68-.67-2.13-5.46-1.88-6.74Z"/>
    <path d="M519.17,560.14c1.53-.02.63,3.01.39,3.77-1.34,4.05-5.84,7.38-9.95,8.05-10.49,1.7-16.82-8.28-15.19-17.82l2.38,8.48c3.93,9.72,19.84,6.66,22.37-2.48Z"/>
    <path d="M99.76.11c44.8-2.53,87.65,40.65,84.14,85.65-1.78,22.86-21.33,43.95-44.59,45.41-11.55.73-26.77-4.91-33.31,8.69-8.75,18.19,5.51,57.13,28.03,57.34,6.49.06,11.74-4.11,14.09-9.97,6.54-16.35-5.93-27.7,10.26-43.74,14.57-14.45,30.99-13.86,49.04-6.4,2.62-3.15,3.71-7,6.18-10.37,15.99-21.84,50.93-19.12,73.34-9.87,4.07-7.87,6.76-15.86,12.49-22.8,19.62-23.76,51.4-23.42,75.35-6.41,11.27-23.51,33.17-39.02,60.03-36.76,12.72,1.07,31.51,11.24,41.2,19.55,29.1,24.94,47.92,84.99,36.93,121.64-11.06,36.89-49.76,54.08-86.07,46.73-20.04,27.31-58.78,37.93-89.54,22.86-18.21,24.85-46.13,34.54-75.62,23.82-2.68-.97-11.95-6.02-13.65-5.85-2.3.23-4.17,4.13-5.73,5.57-34.56,31.74-111.99,30.84-152.44,11.6C21.56,264.26-9.73,172.28,2.65,101,10.76,54.32,49.35,2.96,99.76.11ZM98.26,15.86c-32.82,2.47-52.47,29.9-63.41,58.09-4.83,12.44-10.45,27.61-8.4,41.02.91,5.95,7.3,6.53,10.35,1.43,2.19-3.66,4.38-13.28,6.51-18.24,10.59-24.6,24.77-48.54,53.42-53.83,9.41-1.74,20.91,1.26,26.31-8.94,7.87-14.89-13.87-20.35-24.78-19.52ZM164.98,72.45c4.44-4.45-5.91-19.32-9.19-23.08-12.91-14.81-26.77-12.03-14.5,7.75,2.75,4.43,17.95,21.08,23.69,15.33ZM391.74,86.07c.38.45,4.3.8,5.35.68,7.72-.94,12.41-7.67,23.48-7.4s28.81,13.31,37.32,8.89c6.57-3.42-8.93-10.71-11.2-11.74-14.27-6.44-27.5-9.92-42.28-2.75-2.59,1.25-15.82,8.54-12.66,12.32ZM480.16,96.63c.65-3.28-1.66-3.96-4-5.37-1.56-.94-9.44-5.36-10.25-2.49-.7,4.17,12.76,9.37,14.25,7.86ZM360.81,101.79c1.89-3.08-4.99-6.94-7.42-7.76-13.2-4.47-36.47,1.21-43.82,13.89-1.29,2.22-2.46,6.88,1.6,5.41,3.21-1.16,8.15-6.99,11.99-9.06,6.05-3.26,14.03-4.56,20.86-3.88,6.08.61,10.73,5.35,16.78,1.4ZM428.41,206.51c.5,4.41,0,10.37,0,15,0,.43-1.98,3.27,0,3.37,14.07-28.63-3.03-59.48-29.63-72.71,8.76-22.7-2.08-56.53-29.61-57.77,3.33,2.88,7.42,4.58,10.85,7.51,12.46,10.64,17.7,27.37,12.43,43.13-4.04,12.06-14.8,18.06-27.02,13.46-4.29-1.61-12.99-9.2-12.82,0,.15,7.9,13.32,24.47,21.84,21.81,5.27-1.65,2.89-6.41,4.29-9.98s6.77-7.14,10.37-7.63c19.81-2.68,37.41,26.95,39.31,43.81ZM372.91,108.64c-1.53,3.36,7.59,10.22,9.41,7.53,2.6-3.83-5.87-8.9-9.41-7.53ZM444.17,176.88c1.28.16,1.67.12,2.61-.76,1.48-1.38,3.2-7.26,5.25-9.75,9.14-11.12,16.69,1.22,24.96,2.14,1.07.12,1.99.11,2.38-1.09,1.37-4.29-5.22-4.46-7.72-5.63-10.97-5.15-16.63-15.01-14.51-27.07,1.01-5.76,5.88-13.47,6.23-17.81.1-1.16.48-1.38-.83-2.26-5.72,3.19-3.57,11.68-9.58,15.15-10.33,5.97-17.57-2.63-26.78-5.4-.27,1.52.17,1.99,1.11,3.01,1.95,2.12,6.83,4.46,9.39,7.11,5.97,6.21,10.67,17.6,10.56,26.26-.07,5.5-2.75,10.65-3.05,16.11ZM246.73,123.83c-6.1.83-20.18,8.21-21.27,14.75l.82,1.53c9.02-2.41,15.72-8.13,25.5-7.46,7.3.5,14.72,5.57,21.3-1.25,1.09-3.08-4.88-5.31-7.25-6.06-5.39-1.7-13.51-2.27-19.1-1.51ZM330.92,257.14c40.66-41.54,7.73-116.88-42.76-133.49,20.82,17.43,39.45,39.37,46.7,66.17,6.19,22.88,3.61,45.17-3.94,67.32ZM287.06,137.14l-.82,1.53c2.37,4.21,8.39,9.16,13.17,5.59.53-2.63-9.83-7.12-12.35-7.11ZM242.15,275.62c28.87-34.2,16.73-92.94-15.48-120.87-7.76-6.73-17.8-13.01-27.76-15.36l16.51,12.36c27.47,25.56,41.54,87.22,24.13,120.9-1.7,3.28-4.17,6.13-6.14,9.23l8.74-6.26ZM182.26,144.79c-10.99.83-13.81,14.38-3.04,16.17,4.3.71,8.63-.53,12.94,1.31,2.58,1.1,3.93,3.58,6.07,5.18,11.9,8.94,22.33-.11,11.97-11.22-7.63-8.18-16.49-12.3-27.94-11.44ZM281.8,158.89c-2.88.7-.36,20.89-11.24,20.28-3.6-.2-6.58-2.75-9.36-3.46-3.81-.98-1.75,2.2-.04,3.81,5.84,5.47,9.58,5.5,12.23,14.77s.44,13.4-2.61,21.86c-.86,2.37,1.62,2.91,2.98.71,4.53-7.34,3.7-17.45,16.22-15.9,4,.49,8.12,3.82,11.49,4.28s3.9-.87,1.2-2.72c-6.38-4.37-12.42-3.87-17.15-12.1-5.58-9.7-.73-19.36-1.82-28.93-.12-1.09-.39-2.95-1.9-2.58Z"/>
    <path d="M138.91,575.89l2.24-2.99c-3.49-.13-8.01-5.82-1.85-3.77l.36-1.47c-1.35-.02-6.89-2.74-5.24-4.51l3.75.74-2.18-1.6.71-2.9,9.72.74c-1.9-2.75-10.63-1.84-6.31-5.91l10.06,2.16c-4.99-15.04,3.84-28.13,16.41-35.6-2.84-3.49-4.98-11.12-7.49-14.18-1.77-2.17-8.99-3.01-11.91-3.45,3.71,21.45-12.33,34.46-23.55,49.57-4.72,6.35-8.92,12.39-3.78,20.12,1.66,2.5,7.35,4.98,2.97,7.29-4.34.53-13.26-10.13-15.26-13.75-13.35-24.09,15.36-44.93,6.61-69.99-1.07-.18-1.05,1.32-1.26,2.09-.6,2.18-.77,4.51-1.52,6.74-2.35,6.95-6.78,12.06-9.25,18.88l-2.25-.3c-2.04-1.5.14-9.54.1-12.03-.16-10.68-13.74-18.16-15.63-30.19-1.12-7.09,1.46-13.21,1.36-20.11s-2.3-13.76-1.54-20.59c-9.45,6.74-20.53,5.33-30.22-.15-1.96-1.11-15.73-10.87-9.8-12.54,3.16-.89,7.03,4.13,14.28.82,17.79-8.13,7.33-36.3,5.59-50.1-2.22-17.61.67-33.66,12.65-47.16-12.55.23-26.71-8.7-28.43-21.81-1.62-12.32,5.61-3.55,9.64-1.4,8.56,4.57,19.76,3.87,21.8-7.16l13.49,6.01c-11.5,33.11-16.41,76.77,23.61,91.49l-9-8.25c-6.37-7.21-15.01-25.72-17.39-35.11-4.01-15.8,1.59-31.24,7.34-45.85l16.42,5.57c-6.66,12.99-12.17,27.78-3.88,41.4,1.26,2.07,5.21,6.84,7.28,7.72,1.52.65,1.02-1.05,1.21-1.76,3.06-11.46,2.03-11.91.11-22.81-.99-5.64-1.8-17.31,1.37-22.23,1.07-1.66,8.8.04,10.04,1.08,2.27,1.89,7.4,15.23,7.82,18.43,1.55,11.77-7.12,14.54-10.43,24.31,8.62-10.66,19.2-10.73,13.31-27.2-1.83-5.12-6.6-10.35-8.06-14.44-.67-1.89.82-.61,1.31-.57,1.24.12,2.85.17,3.96.55,4.83,1.65,10.43,17.73,10.49,22.57.15,13.74-16.78,14.38-17.93,27.66l11.15,4.18c.45-7.31,7.52-11.52,10.64-17.49,6.29-12.04-1.87-24.92-6.88-35.76,7.35.18,14.76,1.15,22.09,1.53,2.68.14,8.51-.95,10.09.37,7.84,6.55,8.47,18.95,6.46,28.12-2.68,12.27-14.98,24.43-13.1,36.31.82,5.16,12.09,10.55,17.2,9.41-2.7-2.54-5.28-3.21-6.89-6.98-3.14-7.34-2.18-14.28,1.78-21,2.36-4.01,13.46-15.01,13.99-17.57.4-1.94-3.72-8.18-2.12-11.43,3.43.1,1.81,5.1,4.12,6.74,4.85-10.05-7.97-16.48-13.53-22.47-.68-.74-1.37-1.06-1.1-2.27,13.94-1.16,27.94-3.16,41.24-7.5-1.98,13.3-14.71,24.86-15.74,38.63-.61,8.19,5.26,7.27,11.24,10.12-2.16-11.78-.39-22.09,4.16-32.98.85-2.03,4.97-11.3,6.71-11.3,4.23-.02-2.04,7.45-.74,9.78,2.92-3.73,8.49-8.96,9.78-13.47.47-1.65.14-3.28.52-4.73.93-3.59,10.71-5.79,13.71-8.79l1.84,7.9,3.02,6.34c.28-4.05,9.02-14.41,12.38-15.01,1.12-.2,1.33.03,1.14,1.14-.28,1.62-5.79,5.38-7.49,7.51-7.29,9.12-5.1,20.18-10.11,30.39-7.68,15.67-12.56,17.67-10.9,37.83.53,6.47,3.21,11.75,4.46,17.95-.51.77-.53.98-1.5.84-1.93-.27-4.96-7.36-6.39-9.35l-4.08-3.8c2.66,10.84-1.28,21.9-6.78,31.17-.23,2.65,3.41,3.78,4.19,6.28,3.07,9.79-16.03,22.1.76,26.24l.25,2.98c-13.28,4.21-27.01-9.24-23.93-22.43-2.23.23-13.93,3.34-14.29,5-.88,4.08,4.48,4.42,6.74,5.93,7.41,4.92,13.43,13.46,18.04,20.96,11.15,1.43,23.21-1.29,34.06,1.94,9.38,2.8,8.64,15.41,7,23.34-.95,4.59-2.69,10.5-8.38,10.37h-39.77c-5.3,2.18-7.68,9.69-.58,11.05,3.42.66,4.57-1.09,7.69-1.34.54,4.23-2.22,7.6-5.29,10.07l-5.95,3.42c18.9.97,38.03,11.55,44.61,30.02,5.77,16.19,1.78,36.07-4.73,51.5-.63,1.49-4.94,11.06-5.47,11.39-1.39.87-4.44-.64-4.42-2.52,7.07-11.35,11.2-24.59,12.75-37.89-5.43,3.82-4.25,7.93-3,13.5l-4.88-5.99c-1.71-.28-1.05.57-.94,1.69.12,1.23,1.74,6.1,1.32,6.55-3.01.09-3.23-4.12-5.24-5.24v9s-2.24,0-2.24,0l-2.27-7.5-4.36,1.62-.13,8.12c-3.1.31-3.19-5.54-4.47-6.44l-4.44.53c-.35,2.77.25,5.6-.3,8.36-.27,1.38-.34,2.48-2.04,2.05l-.76-8.24c-2.41.98-.21,6.23-3.73,5.99-1.4-1.77.57-7.25-2.25-6.75l-1.14,6.76c-3.84-.08-2.2-12.39-6.74-1.52-2.24-1.14.28-5.07-2.62-4.49-.95,3.49-.86,6.26-.01,9.75-2.65,2.45-5.45-8.53-4.5-10.49-4.26.65-3.75,6.5-6.38,8.99-2.32,1.12.47-6.17-.37-6.74-1.87.97-.53,5.54-3.74,5.24l.75-8.99c-3.95-.63-4.99,6.57-7.12,1.5-1.55.6-4.69,6.8-6.38,5.24l2.24-8.25c-1.53.73-1.58,3.7-3.76,1.77-.14-1.05.69-3.02-1.09-2.5-1.43.42-7.47,4.77-8.64,3.73l5.25-7.49-6,2.99,1.49-6-2.63,1.49c-3.27.93,1.38-5.03,1.14-5.23l-15.39,5.19-1.11-1.43,2.25-1.52h-11.25ZM82.66,321.64c-6.36,2.35-12.32,2.1-18.51-.62-1.26-.55-7.9-5.17-8.49-4.63,4.48,9.46,20.43,15.04,27,5.25ZM85.66,377.89c-4.32-9.71-5.62-19.03-5.27-29.66.06-1.96.72-3.81.82-5.94.04-.83.5-3.54-.78-3.4-2.31,11.12-2.04,21.07,1.47,31.9.71,2.18,1.88,5.83,3.77,7.1ZM196.67,419.13c1.2.27,1.54-.41,2.27-1.1,3.18-2.98,10.06-9.25,12.3-12.45,4.32-6.17,3.17-12.82-.31-19.1-5.15-9.29-13.97-12.26-19.9-20.59-5.03,5.76-8.26,11.68-6.03,19.52,2.39,8.4,15.06,11.32,16.09,2.52.43-3.66-2.72-9.33,3.14-7.37,2.87,8.37.09,18.91-9.84,20.19l-.68.84,2.95,17.54ZM155.41,404.14c1.27-1.32-5.29-5.63-6.24-6.13-11.04-5.84-25.32-5.35-35.98-12.77l-10.27-7.35c5.06,7.42,10.76,14.73,18.99,18.87,11.39,5.73,22.97-.4,33.5,7.37ZM176.41,427.39c-1.88-6.63-4.52-12.94-5.23-19.89-.28-2.71.6-7.49-.13-9.62-.4-1.18-2.41-1.66-3.3-2.7-1.28-1.52-1.59-3.64-3.33-4.54,3.54,9.79,4.68,19.87,3.08,30.24l8.9,6.51ZM178.57,400.48l-5.9-1.59c.27,10.94,3.3,21.81,9.02,31.09l10.47,3.4c.24-6.06-5.34-10.12-8.11-14.75-3.18-5.32-5.43-11.93-5.48-18.15ZM181.66,505.38c.76-25.95-28.53-28.17-46.68-35.44-12.59-5.04-24.6-13.19-28.74-26.76l-8.57-7.54c1.95,19.04,13.09,40.23,30.23,49.63,6.1,3.34,12.23,5.21,19.26,4.35l-9-8.63,1.85-1.86c4.38,2.63,9.8,8.57,13.95,10.81,6.39,3.46,17.28,4.48,23.2,10.55l4.48,4.88ZM192.91,489.63c1.77-10.51-13.37-30.51-22.74-33.12-6-1.67-13.8-1.27-20-2.87,13,9.69,29.42,15.82,39.32,29.29l3.42,6.7ZM198.15,487.38l3.67-5.02c.57-2.18-5.84-9.53-7.42-11.82-3.26-4.74-3.7-9.67-11.23-10.14,6.15,7.78,13.91,15.94,13.5,26.62l1.49.37ZM203.43,478.38c11.03-2.74-8.41-14.62-9.76-13.49l9.76,13.49ZM108.91,503.13l1.94-12.78c-6.37-2.32-11.42-5.7-16.17-10.47.73,6.06,6.89,10.17,10.37,14.75l3.87,8.49ZM122.42,530.14c6.52-4.15,11.45-15.21,10.31-22.7-.36-2.34-4.55-11.91-6.2-13.29-.96-.8-3.9-1.63-3.34.33s2.19,4.35,2.77,6.99c2.21,10.13.34,19.31-3.53,28.67ZM114.15,560.88c5.74-14.73,20.56-23.82,26.28-38.6,3.59-9.3,5.45-20.68-2.79-28l-8.48-.89c1.66,4.31,5.76,8.61,6.57,13.3,1.5,8.71-2.56,19.26-9.21,24.93-1.77,1.51-4.89,2.75-6.3,4.2-2.91,2.99-6.57,17.96-6.83,22.42-.05.82-.49,2.84.77,2.64ZM201.91,516.65c-5.85-1.52-8.59-7.4-10.12-12.76-2.31,3.9-8.8,8.96-7.86,13.83.35,1.79,7.6-.18,9.36-.32,2.24-.18,4.51.11,6.76,0,.85-.04,2.06.49,1.86-.74ZM242.41,542.89c.29-1.34-.69-1.84-1.48-2.64-17.38-17.58-39.2-16.57-61.89-13.87-2.02.24-4.91-.45-6.62.13-3.16,1.08-4.78,16.85-2.79,18.3l2.3.33-.38-1.5,7.87,2.25c-1-2.88-5.73-3.36-5.25-6.74l10.49,3.75c1.28-1.24-7.07-6.16-1.49-5.63l4.49,3.38c-.12-2.93-4.58-2.55-3.74-6l8.25,2.99c-1.88-2.18-3.61-4.35.75-3l-1.5-2.99c1.99-1.46,7.24,4.52,9.38,5.24l-1.88-5.24,9.74,4.5c.89-.91-3.19-4.79-3.74-5.63-.64-.98-.53-1.9.37-1.85,1.14.06,8.44,6.88,9.76,7.48.32.15,1.23.19,1.11-.37l-2.25-3.37,5.99,2.99c.96-1.02-3.69-3.61-1.87-5.24l5.26,4.49,1.49-2.24c1.47,1.03,6.69,7.68,7.89,6.74l-1.49-2.62c-.79-2.53,6,3.94,6.34,4.16,1.42.91,3.46.9,4.89,2.22ZM166.66,528.64c-1.3-.34-1.5.53-2.25,1.12-6.53,5.05-12.07,14.11-9.79,22.55l5.29.32-2.24-2.99,9.75.74c-3.25-2.77-12.61-9.25-1.5-5.25-1.41-5.65-.77-10.98.75-16.49ZM206.07,549.66c-2.49.82-7.94,20.17-.03,20.16,6.7-.01,2.14-9.41,1.88-13.08-.16-2.24,1.85-8.29-1.85-7.08ZM234.91,551.88l-2.27.37-.64.82c.67,2.39.3,6.25,3.66,6.31l-.75-7.5ZM206.41,583.38c-9.12-7.19-15.42-17.17-14.26-29.24-3.94,2.17-8.31,3.7-11.93,6.44-1.26.96-9.53,9.09-9.73,9.82-.55,2.02,4.91,5.01,6.63,5.89,8.42,4.33,19.91,6.09,29.28,7.09ZM239.41,575.88c1.37,1.22,12.25-8.73,12.65-10.27.64-2.49-4.24-8.42-6.28-9.96,1.3,7.29-1.93,14.6-6.37,20.24Z"/>
    <path d="M351.91,376.01c-2.83-23.88-33.28-32.31-40.11-49.89-4.02-10.35-3.4-24.08,3.72-33.01,1.96-2.46,12.65-11.16,15.39-12.37,1.28-.57,1.39-.29,2.16.74-2.79,7.33-2.75,14.12-2.92,21.77-.03,1.44-.79,2.83-.77,4.47.1,9.22,4.73,20.13,11.27,26.66-3.2-10.43-3.06-20.85-.19-31.32,1.79-6.53,6.87-14.44,5.09-21.2-.64-2.42-3.04-3.64-3.39-5.97,4.22-.58,6.93,4.31,7.43,7.93,1.19,8.76-5.44,18.69-6.47,27.89-1.02,9.08-.21,21.41,5.78,28.67.23-13.66,1.57-29.51,5.81-42.57.69-2.11,3.88-8.15,3.94-8.84.2-2.07-2.03-5.75-2.46-8.01-.14-.72-.86-2.91.59-2.82,1.16.08,2.67,5.45,3.22,6.54.36.71-.2,1.21,1.28.94l6.16-7.34c17.86.16,35.24-3.64,50.97-12.03,2.69-1.44,15.49-10.32,16.46-10.43,1.43-.16,3.57,1.08,5.24,1.22,2.41.21,6.73-.45,8.55.45.48.24,4.55,5.5,5.98,6.77,3.19,2.82,7.03,5.39,10.5,7.86,1.41-1.71-10.88-11.98-11.24-14.99,9.63-1.27,18.6-4.72,27.27-8.89,9.3,7.16,13.82,16.02,12.49,28.01-.44,3.97-2.92,8.1-3.56,12.19-.13.8-.88,3.29.55,3.17.46-3.13,2.31-6.48,3.9-9.22,9.69-16.71,30.44-31.22-1.64-41.39,7.44-5.26,13.73-11.8,19.12-19.11,11.73,12.52,16.39,30.04,17.62,46.87.3,4.15-.16,8.55,0,12.75.04.91-.57,2.79.74,2.61,2.52-14.21,4.88-26.66.77-40.88-3.18-11-8.59-22.3-14.27-32.22,1.27-1.56,1.06-1.12,2.27-.04,2.11,1.88,6.16,7.63,7.79,10.21,4.76,7.5,8.45,16.71,10.2,25.44,1.13,1.16,2.15-6.81,2.23-7.88,1.4-18.07-5.77-24.58-16.48-37.47l7.49-19.15c1.01-.91,5.09,4.69,5.87,5.75,7.66,10.39,12.12,21.26,14.89,33.86,1.67,7.61,1.54,17.7,3.4,24.35,1.34,4.76,7.65,9.3,12.38,10.11,10.58,1.82,19.09-6.43,20.45-16.32,4.3.62,3.24,8.88,2.66,12.03-1.65,8.96-8.78,11.48-7.82,22,1,10.9,8.34,22.96,16.8,29.7,3.26,2.6,7.07,3.72,9.95,5.76.64.45.99.22.99,1.38,0,6.21-15.77,5.84-19.97,6.38-1.05.13-1.29-.4-1.1,1.11l19.97,24.34c4.73-1.25,2.37-6.9,3.66-9.68,1.64-3.54,4.23.22,5.09,2.39,5.96,14.94-6.5,32.35-22.72,25.35-2.8,15.58-7.04,27.62-23.82,31.31-1.91.42-5.44-.53-6.08,1.42-1.1,9.83.75,30.32,14.5,29.55,4.15-.23,7.57-3.35,11.65-3.78.95,3.72-2.26,8.57-4.85,11.27-10.79,11.29-32.12,13.1-44.25,2.96-1.88-1.57-3.22-4.22-4.51-5.25-.76-.61-.73-1.13-1.51.02-2.59,3.84-4.55,17.4-4.12,22.12,1.07,11.77,13.9,22.42,23.98,12,2.28-2.36,6.03-11.66,8.64-11.46,4.15.32,1.46,12.33.73,14.84-7.55,26.21-35.41,38.42-58.5,21.84-2.1,2.98-5.81,6.56-6.3,10.14-.68,4.97,2.93,3.73,5.93,6.66-.18,3.33-3.72.53-4.5,1.12l2.25,4.1c-1.59,3.23-6.59-2.02-7.5-1.11l2.24,5.99c-2.84.48-5.12-.99-7.49-2.25l1.49,5.25-5.25-1.49,2.91,4.23-1.06,1.76c-2.25-.17-4.98-2.88-7.08-1.9-3.64,1.71.75,3.67.76,5.27.02,4.15-5.3-.98-7.89-.36-2.29.54,1.08,3.17.36,4.49l-4.49-.74,2.24,5.24c-3.45,1.67-4.83-3.38-8.24-2.99-.7.65,3.88,7.73,1.11,8.25-2.42.46-6.47-6.31-7.85-5.25-1.4,2.94,1.57,6.54-1.13,8.98-1.93-.03-3.9-8.58-7.13-6.35l1.5,7.12c-3.52.76-2.8-3.34-5.24-4.5.11,1.34.4,5.71-1.87,5.25-2.85-1.65-1.27-6.18-4.87-5.25l-.77,9.75c-4.68.55-2.66-6.07-5.62-8.23l-3,9.72-3.48-8.13-5.15-.11c-.5.49,1.22,16.07-3.36,10.49-2.6-3.17.22-12.01-7.06-9.65l-1.96,8.17-2.45-1.29-1.65-6.96c-.72,1.74-2.9,10.92-4.87,10.49-2.99-.65-1.3-9.96-3.35-12.41-2.81,0-6.07-2.07-8.67-1.9-2.15.14-6.5,2.95-9.33,3.47-8.9,1.64-8.01-1.85-5.66-8.65,1.2-3.47,6.72-11.87,7.02-14.07.4-2.95-4.37-4.47-3.64-6.56s5.11.88,6.74.36l-3.74-5.99c2.67-.71,4.73,1.25,6.93,1.71,1.04.22,1,.89,2.05-.59-.09-2.57-9.45-6.64-7.48-8.62l7.11,2.25c.63-.04-.82-2.45,1.4-2.18l4.22,2.17c.4-2.74-4.68-5.42-1.85-7.5l6.35,3.75c.91-2.92-7.56-8.88-5.99-10.5l12.75,5.24c-1.14-2.82-6.16-5.37-7.51-7.28-.83-1.18-.8-1.6.4-2.46l11.6,6.75-4.49-10.5,8.99,6.75c.61-.74-4.51-9.61-4.92-11.22-.34-1.33-.35-1.37.8-2.27l10.12,10.48c-.45-3.38-2.83-7.58-3.01-10.87-.09-1.62,1.41-1.57,2.17-1.03.91.65,3.69,8.84,6.09,9.65l-3-13.5c-20.83,5.36-36.68,19.52-47.37,37.75-1.2,2.05-3.55,9.53-6.24,8.75-2.32-1.7-.11-4.72.72-6.76,4.88-11.87,17.56-26.22,28.21-33.29l14.18-7.93c-11.95-2.56-21.66-10.93-28.24-20.94-1.68-.5-12.58,7.46-14.75,9.06-3.03,2.24-16.94,14.62-18.92,14.9-3.62.52-16.96-13.15-18-16.49-3.67-11.86,11.88-21.68,20.45-26.88,7.9-4.8,16.6-8.25,24.56-12.94,1.58-8.48,4.06-16.69,9.39-23.6l-6.73-2.62c1.72,16.12-8.08,32.44-25.77,30.02-3.39-1.94,4.79-6.47,5.82-7.59,5.68-6.21,6.64-18.23,4.46-26.06l-3.25-9.86c-.37,6.27-3.09,14.77-6.88,19.75-.65.85-.78,1.53-2.13,1.25-.5-5.84.68-12.67,0-18.38ZM578.41,272.89c-.81-.94-5.49,4.43-6.39,5.22-1.64,1.44-6.11,3.34-5.51,5.5.12.45,4.74,6.36,5.53,7.28,6.25,7.3,15.03,14.02,24.38,16.48l-6.73-6.39c-6.62-7.81-11.11-17.78-11.27-28.1ZM555.16,326.13c-7.16-16.66-11.8-34.16-16.12-51.74l-4.8,18.24c8.89,6.69,12.11,18.23,10.75,29l10.17,4.5ZM433.58,379.3l6.01-11.54c-14.99-10.66-21.5-26.45-12.96-43.78,5.52-11.2,15.91-18.87,25.78-25.97l-13.52-12.73-3.36-4.9c-.43,4.42-.29,8.42-1.54,12.72-4.39,15.24-17.37,19.64-18.37,38.63-.58,11,2.97,11.32,7.65,19.41,5.34,9.21,7.05,17.61,5.12,28.25l5.17-.09ZM495.17,351.63c5.78-3.26,15.85-1.04,20.98-3.39,1.45-.67,5.97-7.79,6.91-9.59,4.63-8.96,10.28-26.77-1.11-32.92s-22.19,9.94-20.59,20.6c2,13.37,16.51,16.74,5.98.17l1.82-1.75c12.6,6.17,5.3,26.38-8.39,15.66l-4.09-6.77c-1.46,5.89-1.71,11.94-1.5,17.99ZM383.41,329.51c.53-3.38,0-9.03,0-12.75,0-.34-1.31-1.68-1.86-.36-5.46,10.37-13.32,18.98-14.55,31.2-.63,6.24-.8,16.46,3.65,21.28-1.06-4.62-.73-7.39.55-11.84,2.38-8.32,11.15-20.73,12.21-27.54ZM468.16,365.14v-13.88c0-1.31,3.51-8.15,4.48-9.77,3.88-6.46,10.09-11.32,13.53-17.97-2.49.81-3.97,3.66-6.06,5.19-7.06,5.21-17.81,8.06-21.11,17.15-3.55,9.78,1.67,14.12,9.16,19.28ZM487.66,376.39c-4.82-16.43-2.76-32.25,0-48.75-9.77,10.97-21.05,24.97-14.06,40.32,5.28,1.71,9.74,5.11,14.06,8.43ZM400.65,336.64c-1.99-1.49-7.08,9.71-8.14,11,2.97,4.68,9.23,9.29,10.21,15.05s-1.69,10.7-4.24,15.59c.16,2.1,15.57,5.85,18.17,4.89l1.26-3.02c-3.9-.13-8.42-1.78-10.5-5.25,3.94.68,6.93,4.52,11.19,3.67,4.65-17.22-13.32-27.16-17.95-41.93ZM588.8,357.74l-10.38-5.35c1.93,11.31-6.31,29.01-19.78,22.4-6.85-3.36-9.36-11.63-7.97-18.65-4.08.57-4.79,7.37-4.32,10.69.57,4.04,6.33,14.33,9.58,16.68,4.77,3.43,13.93,1.18,18.68-1.56,7.34-4.23,13.88-15.87,14.2-24.2ZM395.4,375.63c.64-3.14,3.91-7.47,3.61-10.69-.23-2.51-6.8-13.31-8.84-11.8-1.22,4.35-2.94,8.28-2.08,12.95.33,1.81,5.55,10.91,7.31,9.54ZM439.66,378.64c-1.8-2.1-2.92,5.66-2.98,6.38-.69,7.5,1.26,19.16,4.85,25.87,2.52,4.72,6.49,7.83,8.77,12.98,4.01,9.05,4.47,19.1-3.12,26.38,4.26,2.73,13.08.38,16.86-2.62,9.34-7.43,4.09-20.08-.81-28.44-7.91-13.49-23.42-24.37-23.57-40.56ZM417.91,402.64h15.75c-1.43-7.15-2.33-14.49-.75-21.75l-5.63.73-9.36,21.01ZM413.41,388.39c-4.5,1.72-18.67-.56-21.43,1.44-1.68,1.21-4.64,9.7-5.2,12.05-1.87,7.89-2.15,16.18-.91,24.18.51,3.3,1.29,7.6,3.17,10.33,2.12-8.5,6.19-17.82,10.48-25.51,4.3-7.71,10.99-14.03,13.89-22.48ZM503.42,416.89c1.34-.19,1.25-1.57,1.69-2.43,2.35-4.59,5.07-11.04,2.79-15.94l-8.23-4.89c2.66,7.4,3.94,15.35,3.75,23.25ZM570.16,434.88c-2.27-2.12-5.35-3.27-7.86-5.26-11.91-9.42-10.73-17.6-14.71-30.29-.26-.84-.26-1.81-1.42-1.94-6.95,24.95-40.98,44.98-26.8,73.66,3.23,6.53,15.68,17.44,23.22,16.21,5.99-.98,13.39-11.77,16.31-16.75l-9.13,5.11c-4.43,1.48-9.1-.07-12.63-2.84-13.24-10.4-13.09-41.15-.73-52.55,2.53-1.27,4.19,5.31,5.6,7.18,5.98,7.94,19.09,9.64,28.14,7.47ZM403.66,431.51c-.49-4.87.36-10.42,0-15.38l-6.36,11.27c-7.1,19.08,3.91,38.38,25.9,34.9,14.59-2.31,15.89-15.44,8.22-25.91.18,9-10.3,18.55-19.02,13.39-4.95-2.94-8.19-12.81-8.74-18.26ZM435.16,461.14h13.12c.22,0,.85,1.06,1.48.06l.82-3.06-10.16-6.38c7.04-7.44,10.78-14.82,6.13-24.89-3.7-8.01-11.17-1.26-18.14-1.73,10.67,8.66,17.12,24.47,6.75,35.99ZM423.9,426.64l-11.95,3.04c-1.55,23.71,21.37,16.87,11.95-3.04ZM497.41,445.39l-8.07,7.22,5.46,13.77c.41,0,4.04-6.48,4.13-7.17.45-3.51-2.64-9.72-1.51-13.82ZM485.4,455.89c-5.26,2.89-7.69,1.6-8.87,7.99-.28,1.55-.35,3.24-.47,4.8l1.09,1.1c4.22,1.88,4.47-6.6,5.16-9.16.35-1.29-.53-2.08,1.6-1.73l-.74,14.24c7.99-3.29,4.33-11.28,2.24-17.24ZM474.91,460.39l-4.45.79-.05,5.96,2.31-.45,2.18-6.3ZM498.9,472.38c.91-3.2,2.31-5.65.75-8.99l-2.77,6.49c.17,1.38.14,2.99,2.02,2.5ZM437.42,465.63h-3.75s2.26,6.75,2.26,6.75c1.78-.17,1.75-6.49,1.49-6.75ZM462.87,468.7l-2.2-.81-1.5,9.75c1.83-.37,4.16-8.42,3.7-8.94ZM503.41,477.63c1.1-.84.65-5.19-1.12-5.98-3.42,1.5-.8,7.44,1.12,5.98ZM487.66,500.15c-6-2.15-11.39-6.43-18-6.75,5.28,5.86,5.52,14.23,5.26,21.74,2.2-1.2,13.91-13.46,12.74-14.99ZM438.91,511.01c.53-1.88,0-8.64,0-11.25,0-3.57-4.76-6.5-7.06-1.06-1.7,4.01.28,8.97.98,13.13,1.39,1.91,5.53,1.1,6.08-.82ZM420.16,498.64c-12.41,5.99-24.33,15.25-32.23,26.6,1.9,5.46,3.62,7.7,9.44,8.57,10,1.49,22.72.78,32.7-.89,1.58-.26,7.55-1.2,8.09-2.41-12.27-5.56-19.66-18.38-18-31.87ZM378.92,536.88c.81.79,8.7-2.09,8.99-3.42l-3.37-6.32c-.96,1.39-6.67,8.71-5.62,9.73Z"/>
    <path d="M578.41,494.14c-.27.73-.36,1.54-.75,2.24l6.74,1.13-5.31,7.82-2.18-.7c-.46,8.92-7.82,7.98-12.53,2.33l-3.22,1.43.65-4.74c-2.94-3.61-8.86-2.39-11.05,1.49.08,4.96,4.09-.12,7.94,1.55.59.26,9.61,7.52,10,8.02,2.39,3.08-2.89,4.19-3.07,7.17-7.82-6.29-24.05-14.26-10.84-24.73,6.67-5.28,12.92-2.75,10.11,5.97l11.25.75-7.67-16.31c-1.93-1.95-5.44.12-5.82-.19,6.95-12.71,17.91-1.33,25.91-1.42,2.64-.03,1.48-1.2,3.33-2.32.75,2.97-1.96,7.71-4.88,8.24-4.93.89-3.56-.64-8.61,2.26.43-1.19.72-1.95,1.5-2.99l-9.74-3.01c-.71,2.81,4.04,7.28,6.38,7.23.52-.01,1.3-.9,1.86-1.23Z"/>
    <path d="M597.71,437.31c13.77-2.8,21.14,16.74,8.22,22.47-16.71,7.42-24.34-19.19-8.22-22.47ZM589.77,451.29c3.05,1.32,6.5,2.41,9.9,2.28,2.95-.11,16.7-3.13,10.56-7.38-4.99-3.44-23.93-.59-20.45,5.09Z"/>
    <path d="M599.42,463.39c1.1-.13,1.34,1.95,1.42,2.69,2.58,22.95-29.17,17.22-23.13-.77,1.98-5.9,9.05-4.86,6.71-10.91,4.55,1.29,7.63,7.87,2.95,10.83-1.76,1.12-11.21,1.54-9.38,4.93,6.18,5.68,26.04,5.78,21.43-6.76Z"/>
    <path d="M601.1,426.06c-.42.39-.92,1.77-.8,2.34.98,4.76,19.9,3.05,21.46-2.3.43-1.47-.59-4.34.9-4.71,6.84,20.13-24.65,23.49-23.26,4.14.42-5.87,7.17-8.19,6.8-11.26-.04-.35-2.9-.39-1.17-1.88,3.66,1.95,6.95,3.54,5.47,8.46-1.16,3.87-7.89,3.8-9.41,5.21Z"/>
  </g>
</svg>